<?xml version="1.0" standalone="no"?>
<!DOCTYPE svg PUBLIC "-//W3C//DTD SVG 20010904//EN"
 "http://www.w3.org/TR/2001/REC-SVG-20010904/DTD/svg10.dtd">
<svg version="1.0" xmlns="http://www.w3.org/2000/svg"
 width="200.000000pt" height="200.000000pt" viewBox="0 0 200.000000 200.000000"
 preserveAspectRatio="xMidYMid meet">
<metadata>
Created by potrace 1.11, written by Peter Selinger 2001-2013
</metadata>
<g transform="translate(0.000000,200.000000) scale(0.100000,-0.100000)"
fill="#000000" stroke="none">
<path d="M370 1989 c0 -6 5 -20 11 -31 21 -38 19 -130 -2 -160 -42 -59 -52
-107 -53 -253 0 -129 2 -146 27 -209 33 -85 33 -91 1 -93 -45 -2 -68 -35 -66
-96 1 -68 23 -123 88 -217 75 -107 91 -123 118 -116 21 5 26 -1 45 -50 24 -63
64 -125 134 -206 43 -51 47 -59 30 -64 -27 -10 -53 -35 -47 -45 3 -5 1 -9 -5
-9 -5 0 -17 -23 -26 -51 -12 -34 -34 -68 -66 -101 -27 -28 -47 -54 -44 -58 7
-12 -38 -23 -140 -36 -81 -9 -171 -32 -220 -55 -47 -22 -116 -83 -135 -119
-11 -20 -6 -20 975 -20 l986 0 -21 29 c-62 88 -138 126 -344 171 l-129 28 -59
64 c-37 40 -62 77 -69 103 -17 61 -29 82 -56 94 l-24 11 49 58 c59 68 111 149
137 213 16 38 23 46 40 43 12 -2 28 2 37 9 13 11 79 105 131 187 26 41 46 148
35 182 -11 31 -53 62 -70 52 -8 -5 -8 1 -3 22 5 16 10 76 11 134 2 58 7 137
11 175 10 82 -1 138 -42 213 -35 65 -119 150 -170 173 -39 18 -40 18 -15 28
17 7 -147 10 -517 10 -369 0 -543 -3 -543 -10z"/>
</g>
</svg>
